<svg width="48" height="48" viewBox="0 0 48 48" fill="none" xmlns="http://www.w3.org/2000/svg">
<path d="M28 28H39C40.1046 28 41 27.1046 41 26V16C41 14.8954 40.1046 14 39 14H9C7.89543 14 7 14.8954 7 16V26C7 27.1046 7.89543 28 9 28H21" stroke="#171717" stroke-linecap="round"/>
<path d="M7.5 29V37C7.5 38.1046 8.39543 39 9.5 39H38.5C39.6046 39 40.5 38.1046 40.5 37V29" stroke="#171717" stroke-linecap="round"/>
<path d="M17 11C17 9.89543 17.8954 9 19 9H29C30.1046 9 31 9.89543 31 11V14H17V11Z" stroke="#171717"/>
<line x1="24.5" y1="26" x2="24.5" y2="30" stroke="#171717" stroke-linecap="round"/>
</svg>
