<svg width="48" height="48" viewBox="0 0 48 48" fill="none" xmlns="http://www.w3.org/2000/svg">
<path fill-rule="evenodd" clip-rule="evenodd" d="M15.5 30C15.5 31.1046 16.3954 32 17.5 32H37.5C38.6046 32 39.5 31.1046 39.5 30V10C39.5 8.89543 38.6046 8 37.5 8H17.5C16.3954 8 15.5 8.89543 15.5 10V30Z" stroke="#171717" stroke-linecap="round" stroke-linejoin="round"/>
<path fill-rule="evenodd" clip-rule="evenodd" d="M6.5 16C6.5 16.5523 6.94772 17 7.5 17H9.5C10.0523 17 10.5 16.5523 10.5 16V14C10.5 13.4477 10.0523 13 9.5 13H7.5C6.94772 13 6.5 13.4477 6.5 14V16Z" stroke="#171717" stroke-linecap="round" stroke-linejoin="round"/>
<path fill-rule="evenodd" clip-rule="evenodd" d="M6.5 40C6.5 40.5523 6.94772 41 7.5 41H9.5C10.0523 41 10.5 40.5523 10.5 40V38C10.5 37.4477 10.0523 37 9.5 37H7.5C6.94772 37 6.5 37.4477 6.5 38V40Z" stroke="#171717" stroke-linecap="round" stroke-linejoin="round"/>
<path fill-rule="evenodd" clip-rule="evenodd" d="M30.5 16C30.5 16.5523 30.9477 17 31.5 17H33.5C34.0523 17 34.5 16.5523 34.5 16V14C34.5 13.4477 34.0523 13 33.5 13H31.5C30.9477 13 30.5 13.4477 30.5 14V16Z" stroke="#171717" stroke-linecap="round" stroke-linejoin="round"/>
<path fill-rule="evenodd" clip-rule="evenodd" d="M30.5 40C30.5 40.5523 30.9477 41 31.5 41H33.5C34.0523 41 34.5 40.5523 34.5 40V38C34.5 37.4477 34.0523 37 33.5 37H31.5C30.9477 37 30.5 37.4477 30.5 38V40Z" stroke="#171717" stroke-linecap="round" stroke-linejoin="round"/>
<line x1="16" y1="15" x2="17" y2="15" stroke="#171717" stroke-linecap="round"/>
<line x1="20" y1="15" x2="21" y2="15" stroke="#171717" stroke-linecap="round"/>
<line x1="24" y1="15" x2="25" y2="15" stroke="#171717" stroke-linecap="round"/>
<line x1="28" y1="15" x2="29" y2="15" stroke="#171717" stroke-linecap="round"/>
<line x1="12" y1="39" x2="13" y2="39" stroke="#171717" stroke-linecap="round"/>
<line x1="16" y1="39" x2="17" y2="39" stroke="#171717" stroke-linecap="round"/>
<line x1="20" y1="39" x2="21" y2="39" stroke="#171717" stroke-linecap="round"/>
<line x1="24" y1="39" x2="25" y2="39" stroke="#171717" stroke-linecap="round"/>
<line x1="28" y1="39" x2="29" y2="39" stroke="#171717" stroke-linecap="round"/>
<line x1="32.5" y1="18.5" x2="32.5" y2="19.5" stroke="#171717" stroke-linecap="round"/>
<line x1="32.5" y1="22.5" x2="32.5" y2="23.5" stroke="#171717" stroke-linecap="round"/>
<line x1="32.5" y1="26.5" x2="32.5" y2="27.5" stroke="#171717" stroke-linecap="round"/>
<line x1="32.5" y1="30.5" x2="32.5" y2="31.5" stroke="#171717" stroke-linecap="round"/>
<line x1="32.5" y1="34.5" x2="32.5" y2="35.5" stroke="#171717" stroke-linecap="round"/>
<line x1="8.5" y1="18.5" x2="8.5" y2="19.5" stroke="#171717" stroke-linecap="round"/>
<line x1="8.5" y1="22.5" x2="8.5" y2="23.5" stroke="#171717" stroke-linecap="round"/>
<line x1="8.5" y1="26.5" x2="8.5" y2="27.5" stroke="#171717" stroke-linecap="round"/>
<line x1="8.5" y1="30.5" x2="8.5" y2="31.5" stroke="#171717" stroke-linecap="round"/>
<line x1="8.5" y1="34.5" x2="8.5" y2="35.5" stroke="#171717" stroke-linecap="round"/>
</svg>
