<svg width="48" height="48" viewBox="0 0 48 48" fill="none" xmlns="http://www.w3.org/2000/svg">
<path fill-rule="evenodd" clip-rule="evenodd" d="M39.5 34.4384C39.5 35.7396 38.2772 36.6943 37.0149 36.3787L13.0149 30.3787C12.1246 30.1561 11.5 29.3562 11.5 28.4384V17.5616C11.5 16.6438 12.1246 15.8439 13.0149 15.6213L37.0149 9.62127C38.2772 9.30569 39.5 10.2604 39.5 11.5616V34.4384Z" stroke="#171717" stroke-linejoin="round"/>
<path d="M14.5 32.6699V34.0623C14.5 34.9997 15.1511 35.8114 16.0661 36.0147L25.0661 38.0147C26.3152 38.2923 27.5 37.3418 27.5 36.0623V35.56" stroke="#171717" stroke-linecap="round" stroke-linejoin="round"/>
<path d="M27.5 16.4443L20.5 17.9999" stroke="#171717" stroke-linecap="round" stroke-linejoin="round"/>
<path d="M9.5 18H8.5C7.39543 18 6.5 18.8954 6.5 20V26C6.5 27.1046 7.39543 28 8.5 28H9.5" stroke="#171717" stroke-linecap="round"/>
</svg>
