<svg width="48" height="48" viewBox="0 0 48 48" fill="none" xmlns="http://www.w3.org/2000/svg">
<path d="M35.0788 36.8947C32.1025 39.4538 28.2315 41 23.9995 41C14.6103 41 7 33.3902 7 23.9995C7 14.6139 14.6103 7 23.9995 7C33.3887 7 41 14.6139 41 23.9995C41 27.2919 40.0647 30.366 38.4449 32.9689" stroke="#171717" stroke-linecap="round" stroke-linejoin="round"/>
<path d="M18 27.5017C18 29.4348 19.6796 31.0015 21.7506 31.0015H26.2505C28.3216 31.0015 30 29.4348 30 27.5017C30 25.5686 28.3216 24.002 26.2505 24.002H21.7506C19.6796 24.002 18 22.4343 18 20.5012C18 18.5681 19.6796 17.0015 21.7506 17.0015H26.2505C28.3216 17.0015 30 18.5681 30 20.5012" stroke="#171717" stroke-linecap="round"/>
<line x1="24" y1="13.5" x2="24" y2="16.5" stroke="#171717" stroke-linecap="round"/>
<line x1="24" y1="31.5" x2="24" y2="34.5" stroke="#171717" stroke-linecap="round"/>
</svg>
